<?xml version="1.0" encoding="UTF-8" standalone="no"?>
<!DOCTYPE svg PUBLIC "-//W3C//DTD SVG 1.1//EN"
 "http://www.w3.org/Graphics/SVG/1.1/DTD/svg11.dtd">
<!-- Generated by graphviz version 2.40.1 (20161225.0304)
 -->
<!-- Title: dependencies Pages: 1 -->
<svg width="621pt" height="284pt"
 viewBox="0.00 0.00 621.00 284.00" xmlns="http://www.w3.org/2000/svg" xmlns:xlink="http://www.w3.org/1999/xlink">
<g id="graph0" class="graph" transform="scale(1 1) rotate(0) translate(4 280)">
<title>dependencies</title>
<polygon fill="#ffffff" stroke="transparent" points="-4,4 -4,-280 617,-280 617,4 -4,4"/>
<text text-anchor="start" x="285.5091" y="-42.4" font-family="sans-serif" font-weight="bold" font-size="14.00" fill="#000000">Legend</text>
<polygon fill="#ffffb3" stroke="transparent" points="72.5,-10 72.5,-30 92.5,-30 92.5,-10 72.5,-10"/>
<text text-anchor="start" x="96.129" y="-15.4" font-family="sans-serif" font-size="14.00" fill="#000000"> &#160;Declarations</text>
<polygon fill="#8dd3c7" stroke="transparent" points="185.5,-10 185.5,-30 205.5,-30 205.5,-10 185.5,-10"/>
<text text-anchor="start" x="209.2251" y="-15.4" font-family="sans-serif" font-size="14.00" fill="#000000"> &#160;Module</text>
<polygon fill="#80b1d3" stroke="transparent" points="271.5,-10 271.5,-30 291.5,-30 291.5,-10 271.5,-10"/>
<text text-anchor="start" x="295.2812" y="-15.4" font-family="sans-serif" font-size="14.00" fill="#000000"> &#160;Bootstrap</text>
<polygon fill="#fdb462" stroke="transparent" points="368.5,-10 368.5,-30 388.5,-30 388.5,-10 368.5,-10"/>
<text text-anchor="start" x="392.1732" y="-15.4" font-family="sans-serif" font-size="14.00" fill="#000000"> &#160;Providers</text>
<polygon fill="#fb8072" stroke="transparent" points="464.5,-10 464.5,-30 484.5,-30 484.5,-10 464.5,-10"/>
<text text-anchor="start" x="488.2258" y="-15.4" font-family="sans-serif" font-size="14.00" fill="#000000"> &#160;Exports</text>
<g id="clust1" class="cluster">
<title>cluster_SharedModule</title>
<polygon fill="none" stroke="#000000" stroke-dasharray="1,5" points="8,-70 8,-268 605,-268 605,-70 8,-70"/>
</g>
<g id="clust2" class="cluster">
<title>cluster_SharedModule_declarations</title>
<polygon fill="none" stroke="#000000" points="16,-78 16,-130 597,-130 597,-78 16,-78"/>
</g>
<g id="clust8" class="cluster">
<title>cluster_SharedModule_exports</title>
<polygon fill="none" stroke="#000000" points="84,-208 84,-260 520,-260 520,-208 84,-208"/>
</g>
<!-- HandleClickDirective -->
<g id="node1" class="node">
<title>HandleClickDirective</title>
<polygon fill="#ffffb3" stroke="#000000" points="589.3417,-122 450.6583,-122 450.6583,-86 589.3417,-86 589.3417,-122"/>
<text text-anchor="middle" x="520" y="-99.8" font-family="Times,serif" font-size="14.00" fill="#000000">HandleClickDirective</text>
</g>
<!-- SharedModule -->
<g id="node5" class="node">
<title>SharedModule</title>
<polygon fill="#8dd3c7" stroke="#000000" points="352.4231,-187 349.4231,-191 328.4231,-191 325.4231,-187 253.5769,-187 253.5769,-151 352.4231,-151 352.4231,-187"/>
<text text-anchor="middle" x="303" y="-164.8" font-family="Times,serif" font-size="14.00" fill="#000000">SharedModule</text>
</g>
<!-- HandleClickDirective&#45;&gt;SharedModule -->
<g id="edge1" class="edge">
<title>HandleClickDirective&#45;&gt;SharedModule</title>
<path fill="none" stroke="#000000" d="M481.1005,-122.0225C481.1005,-139.3734 481.1005,-163 481.1005,-163 481.1005,-163 362.6109,-163 362.6109,-163"/>
<polygon fill="#000000" stroke="#000000" points="362.6109,-159.5001 352.6109,-163 362.6109,-166.5001 362.6109,-159.5001"/>
</g>
<!-- HeaderComponent -->
<g id="node2" class="node">
<title>HeaderComponent</title>
<polygon fill="#ffffb3" stroke="#000000" points="432.7437,-122 311.2563,-122 311.2563,-86 432.7437,-86 432.7437,-122"/>
<text text-anchor="middle" x="372" y="-99.8" font-family="Times,serif" font-size="14.00" fill="#000000">HeaderComponent</text>
</g>
<!-- HeaderComponent&#45;&gt;SharedModule -->
<g id="edge2" class="edge">
<title>HeaderComponent&#45;&gt;SharedModule</title>
<path fill="none" stroke="#000000" d="M331.6697,-122.1061C331.6697,-122.1061 331.6697,-140.991 331.6697,-140.991"/>
<polygon fill="#000000" stroke="#000000" points="328.1698,-140.9909 331.6697,-150.991 335.1698,-140.991 328.1698,-140.9909"/>
</g>
<!-- SidenavComponent -->
<g id="node3" class="node">
<title>SidenavComponent</title>
<polygon fill="#ffffb3" stroke="#000000" points="293.4356,-122 166.5644,-122 166.5644,-86 293.4356,-86 293.4356,-122"/>
<text text-anchor="middle" x="230" y="-99.8" font-family="Times,serif" font-size="14.00" fill="#000000">SidenavComponent</text>
</g>
<!-- SidenavComponent&#45;&gt;SharedModule -->
<g id="edge3" class="edge">
<title>SidenavComponent&#45;&gt;SharedModule</title>
<path fill="none" stroke="#000000" d="M273.5032,-122.1061C273.5032,-122.1061 273.5032,-140.991 273.5032,-140.991"/>
<polygon fill="#000000" stroke="#000000" points="270.0032,-140.9909 273.5032,-150.991 277.0032,-140.991 270.0032,-140.9909"/>
</g>
<!-- SpinnerComponent -->
<g id="node4" class="node">
<title>SpinnerComponent</title>
<polygon fill="#ffffb3" stroke="#000000" points="148.3809,-122 23.6191,-122 23.6191,-86 148.3809,-86 148.3809,-122"/>
<text text-anchor="middle" x="86" y="-99.8" font-family="Times,serif" font-size="14.00" fill="#000000">SpinnerComponent</text>
</g>
<!-- SpinnerComponent&#45;&gt;SharedModule -->
<g id="edge4" class="edge">
<title>SpinnerComponent&#45;&gt;SharedModule</title>
<path fill="none" stroke="#000000" d="M120.125,-122.0225C120.125,-139.3734 120.125,-163 120.125,-163 120.125,-163 243.5114,-163 243.5114,-163"/>
<polygon fill="#000000" stroke="#000000" points="243.5114,-166.5001 253.5114,-163 243.5114,-159.5001 243.5114,-166.5001"/>
</g>
<!-- HeaderComponent  -->
<g id="node6" class="node">
<title>HeaderComponent </title>
<polygon fill="#fb8072" stroke="#000000" points="511.7436,-252 386.2564,-252 386.2564,-216 511.7436,-216 511.7436,-252"/>
<text text-anchor="middle" x="449" y="-229.8" font-family="Times,serif" font-size="14.00" fill="#000000">HeaderComponent </text>
</g>
<!-- SharedModule&#45;&gt;HeaderComponent  -->
<g id="edge5" class="edge">
<title>SharedModule&#45;&gt;HeaderComponent </title>
<path fill="none" stroke="#000000" stroke-dasharray="5,2" d="M352.2551,-175C380.1927,-175 409.625,-175 409.625,-175 409.625,-175 409.625,-205.9775 409.625,-205.9775"/>
<polygon fill="#000000" stroke="#000000" points="406.1251,-205.9774 409.625,-215.9775 413.1251,-205.9775 406.1251,-205.9774"/>
</g>
<!-- SidenavComponent  -->
<g id="node7" class="node">
<title>SidenavComponent </title>
<polygon fill="#fb8072" stroke="#000000" points="367.9348,-252 238.0652,-252 238.0652,-216 367.9348,-216 367.9348,-252"/>
<text text-anchor="middle" x="303" y="-229.8" font-family="Times,serif" font-size="14.00" fill="#000000">SidenavComponent </text>
</g>
<!-- SharedModule&#45;&gt;SidenavComponent  -->
<g id="edge6" class="edge">
<title>SharedModule&#45;&gt;SidenavComponent </title>
<path fill="none" stroke="#000000" stroke-dasharray="5,2" d="M303,-187.1061C303,-187.1061 303,-205.991 303,-205.991"/>
<polygon fill="#000000" stroke="#000000" points="299.5001,-205.9909 303,-215.991 306.5001,-205.991 299.5001,-205.9909"/>
</g>
<!-- SpinnerComponent  -->
<g id="node8" class="node">
<title>SpinnerComponent </title>
<polygon fill="#fb8072" stroke="#000000" points="220.3814,-252 91.6186,-252 91.6186,-216 220.3814,-216 220.3814,-252"/>
<text text-anchor="middle" x="156" y="-229.8" font-family="Times,serif" font-size="14.00" fill="#000000">SpinnerComponent </text>
</g>
<!-- SharedModule&#45;&gt;SpinnerComponent  -->
<g id="edge7" class="edge">
<title>SharedModule&#45;&gt;SpinnerComponent </title>
<path fill="none" stroke="#000000" stroke-dasharray="5,2" d="M253.6895,-175C224.6218,-175 193.4865,-175 193.4865,-175 193.4865,-175 193.4865,-205.9775 193.4865,-205.9775"/>
<polygon fill="#000000" stroke="#000000" points="189.9866,-205.9774 193.4865,-215.9775 196.9866,-205.9775 189.9866,-205.9774"/>
</g>
</g>
</svg>
