<?xml version="1.0" encoding="UTF-8" standalone="no"?>
<!DOCTYPE svg PUBLIC "-//W3C//DTD SVG 1.1//EN"
 "http://www.w3.org/Graphics/SVG/1.1/DTD/svg11.dtd">
<!-- Generated by graphviz version 2.40.1 (20161225.0304)
 -->
<!-- Title: dependencies Pages: 1 -->
<svg width="1327pt" height="360pt"
 viewBox="0.00 0.00 1327.00 360.00" xmlns="http://www.w3.org/2000/svg" xmlns:xlink="http://www.w3.org/1999/xlink">
<g id="graph0" class="graph" transform="scale(1 1) rotate(0) translate(4 356)">
<title>dependencies</title>
<polygon fill="#ffffff" stroke="transparent" points="-4,4 -4,-356 1323,-356 1323,4 -4,4"/>
<text text-anchor="start" x="638.5091" y="-42.4" font-family="sans-serif" font-weight="bold" font-size="14.00" fill="#000000">Legend</text>
<polygon fill="#ffffb3" stroke="transparent" points="425.5,-10 425.5,-30 445.5,-30 445.5,-10 425.5,-10"/>
<text text-anchor="start" x="449.129" y="-15.4" font-family="sans-serif" font-size="14.00" fill="#000000"> &#160;Declarations</text>
<polygon fill="#8dd3c7" stroke="transparent" points="538.5,-10 538.5,-30 558.5,-30 558.5,-10 538.5,-10"/>
<text text-anchor="start" x="562.2251" y="-15.4" font-family="sans-serif" font-size="14.00" fill="#000000"> &#160;Module</text>
<polygon fill="#80b1d3" stroke="transparent" points="624.5,-10 624.5,-30 644.5,-30 644.5,-10 624.5,-10"/>
<text text-anchor="start" x="648.2812" y="-15.4" font-family="sans-serif" font-size="14.00" fill="#000000"> &#160;Bootstrap</text>
<polygon fill="#fdb462" stroke="transparent" points="721.5,-10 721.5,-30 741.5,-30 741.5,-10 721.5,-10"/>
<text text-anchor="start" x="745.1732" y="-15.4" font-family="sans-serif" font-size="14.00" fill="#000000"> &#160;Providers</text>
<polygon fill="#fb8072" stroke="transparent" points="817.5,-10 817.5,-30 837.5,-30 837.5,-10 817.5,-10"/>
<text text-anchor="start" x="841.2258" y="-15.4" font-family="sans-serif" font-size="14.00" fill="#000000"> &#160;Exports</text>
<g id="clust1" class="cluster">
<title>cluster_AppModule</title>
<polygon fill="none" stroke="#000000" stroke-dasharray="1,5" points="8,-146 8,-344 418,-344 418,-146 8,-146"/>
</g>
<g id="clust2" class="cluster">
<title>cluster_AppModule_declarations</title>
<polygon fill="none" stroke="#000000" points="288,-154 288,-206 410,-206 410,-154 288,-154"/>
</g>
<g id="clust4" class="cluster">
<title>cluster_AppModule_imports</title>
<polygon fill="none" stroke="#000000" points="16,-154 16,-206 280,-206 280,-154 16,-154"/>
</g>
<g id="clust6" class="cluster">
<title>cluster_AppModule_bootstrap</title>
<polygon fill="none" stroke="#000000" points="146,-284 146,-336 270,-336 270,-284 146,-284"/>
</g>
<g id="clust14" class="cluster">
<title>cluster_DefaultModule</title>
<polygon fill="none" stroke="#000000" stroke-dasharray="1,5" points="76,-70 76,-138 647,-138 647,-70 76,-70"/>
</g>
<g id="clust15" class="cluster">
<title>cluster_DefaultModule_declarations</title>
<polygon fill="none" stroke="#000000" points="84,-78 84,-130 517,-130 517,-78 84,-78"/>
</g>
<g id="clust19" class="cluster">
<title>cluster_DefaultModule_imports</title>
<polygon fill="none" stroke="#000000" points="525,-78 525,-130 639,-130 639,-78 525,-78"/>
</g>
<g id="clust23" class="cluster">
<title>cluster_SharedModule</title>
<polygon fill="none" stroke="#000000" stroke-dasharray="1,5" points="426,-146 426,-214 1311,-214 1311,-146 426,-146"/>
</g>
<g id="clust24" class="cluster">
<title>cluster_SharedModule_declarations</title>
<polygon fill="none" stroke="#000000" points="878,-154 878,-206 1303,-206 1303,-154 878,-154"/>
</g>
<g id="clust29" class="cluster">
<title>cluster_SharedModule_exports</title>
<polygon fill="none" stroke="#000000" points="434,-154 434,-206 870,-206 870,-154 434,-154"/>
</g>
<!-- AppComponent -->
<g id="node1" class="node">
<title>AppComponent</title>
<polygon fill="#ffffb3" stroke="#000000" points="401.9399,-198 296.0601,-198 296.0601,-162 401.9399,-162 401.9399,-198"/>
<text text-anchor="middle" x="349" y="-175.8" font-family="Times,serif" font-size="14.00" fill="#000000">AppComponent</text>
</g>
<!-- AppModule -->
<g id="node2" class="node">
<title>AppModule</title>
<polygon fill="#8dd3c7" stroke="#000000" points="249.6571,-263 246.6571,-267 225.6571,-267 222.6571,-263 166.3429,-263 166.3429,-227 249.6571,-227 249.6571,-263"/>
<text text-anchor="middle" x="208" y="-240.8" font-family="Times,serif" font-size="14.00" fill="#000000">AppModule</text>
</g>
<!-- AppComponent&#45;&gt;AppModule -->
<g id="edge1" class="edge">
<title>AppComponent&#45;&gt;AppModule</title>
<path fill="none" stroke="#000000" d="M349,-198.1061C349,-217.3391 349,-245 349,-245 349,-245 259.9229,-245 259.9229,-245"/>
<polygon fill="#000000" stroke="#000000" points="259.9229,-241.5001 249.9229,-245 259.9229,-248.5001 259.9229,-241.5001"/>
</g>
<!-- AppComponent  -->
<g id="node5" class="node">
<title>AppComponent </title>
<polygon fill="#80b1d3" stroke="#000000" points="262.439,-328 153.561,-328 153.561,-292 262.439,-292 262.439,-328"/>
<text text-anchor="middle" x="208" y="-305.8" font-family="Times,serif" font-size="14.00" fill="#000000">AppComponent </text>
</g>
<!-- AppModule&#45;&gt;AppComponent  -->
<g id="edge4" class="edge">
<title>AppModule&#45;&gt;AppComponent </title>
<path fill="none" stroke="#000000" stroke-dasharray="1,5" d="M208,-263.1061C208,-263.1061 208,-281.991 208,-281.991"/>
<polygon fill="#000000" stroke="#000000" points="204.5001,-281.9909 208,-291.991 211.5001,-281.991 204.5001,-281.9909"/>
</g>
<!-- AppRoutingModule -->
<g id="node3" class="node">
<title>AppRoutingModule</title>
<polygon fill="#8dd3c7" stroke="#000000" points="272.2744,-198 269.2744,-202 248.2744,-202 245.2744,-198 143.7256,-198 143.7256,-162 272.2744,-162 272.2744,-198"/>
<text text-anchor="middle" x="208" y="-175.8" font-family="Times,serif" font-size="14.00" fill="#000000">AppRoutingModule</text>
</g>
<!-- AppRoutingModule&#45;&gt;AppModule -->
<g id="edge2" class="edge">
<title>AppRoutingModule&#45;&gt;AppModule</title>
<path fill="none" stroke="#000000" d="M208,-198.1061C208,-198.1061 208,-216.991 208,-216.991"/>
<polygon fill="#000000" stroke="#000000" points="204.5001,-216.9909 208,-226.991 211.5001,-216.991 204.5001,-216.9909"/>
</g>
<!-- DefaultModule -->
<g id="node4" class="node">
<title>DefaultModule</title>
<polygon fill="#8dd3c7" stroke="#000000" points="125.5285,-198 122.5285,-202 101.5285,-202 98.5285,-198 24.4715,-198 24.4715,-162 125.5285,-162 125.5285,-198"/>
<text text-anchor="middle" x="75" y="-175.8" font-family="Times,serif" font-size="14.00" fill="#000000">DefaultModule</text>
</g>
<!-- DefaultModule&#45;&gt;AppModule -->
<g id="edge3" class="edge">
<title>DefaultModule&#45;&gt;AppModule</title>
<path fill="none" stroke="#000000" d="M75,-198.1061C75,-217.3391 75,-245 75,-245 75,-245 156.2829,-245 156.2829,-245"/>
<polygon fill="#000000" stroke="#000000" points="156.2829,-248.5001 166.2829,-245 156.2828,-241.5001 156.2829,-248.5001"/>
</g>
<!-- DashboardComponent -->
<g id="node6" class="node">
<title>DashboardComponent</title>
<polygon fill="#ffffb3" stroke="#000000" points="508.9734,-122 367.0266,-122 367.0266,-86 508.9734,-86 508.9734,-122"/>
<text text-anchor="middle" x="438" y="-99.8" font-family="Times,serif" font-size="14.00" fill="#000000">DashboardComponent</text>
</g>
<!-- DashboardComponent&#45;&gt;DefaultModule -->
<g id="edge5" class="edge">
<title>DashboardComponent&#45;&gt;DefaultModule</title>
<path fill="none" stroke="#000000" d="M384.3664,-122.1097C384.3664,-131.897 384.3664,-142 384.3664,-142 384.3664,-142 112.3494,-142 112.3494,-142 112.3494,-142 112.3494,-151.8903 112.3494,-151.8903"/>
<polygon fill="#000000" stroke="#000000" points="108.8495,-151.8903 112.3494,-161.8903 115.8495,-151.8904 108.8495,-151.8903"/>
</g>
<!-- DefaultComponent -->
<g id="node7" class="node">
<title>DefaultComponent</title>
<polygon fill="#ffffb3" stroke="#000000" points="348.8104,-122 225.1896,-122 225.1896,-86 348.8104,-86 348.8104,-122"/>
<text text-anchor="middle" x="287" y="-99.8" font-family="Times,serif" font-size="14.00" fill="#000000">DefaultComponent</text>
</g>
<!-- DefaultComponent&#45;&gt;DefaultModule -->
<g id="edge6" class="edge">
<title>DefaultComponent&#45;&gt;DefaultModule</title>
<path fill="none" stroke="#000000" d="M248.8661,-122.207C248.8661,-127.5549 248.8661,-132 248.8661,-132 248.8661,-132 105.6422,-132 105.6422,-132 105.6422,-132 105.6422,-151.8533 105.6422,-151.8533"/>
<polygon fill="#000000" stroke="#000000" points="102.1423,-151.8532 105.6422,-161.8533 109.1423,-151.8533 102.1423,-151.8532"/>
</g>
<!-- HomeComponent -->
<g id="node8" class="node">
<title>HomeComponent</title>
<polygon fill="#ffffb3" stroke="#000000" points="207.5451,-122 92.4549,-122 92.4549,-86 207.5451,-86 207.5451,-122"/>
<text text-anchor="middle" x="150" y="-99.8" font-family="Times,serif" font-size="14.00" fill="#000000">HomeComponent</text>
</g>
<!-- HomeComponent&#45;&gt;DefaultModule -->
<g id="edge7" class="edge">
<title>HomeComponent&#45;&gt;DefaultModule</title>
<path fill="none" stroke="#000000" d="M98.9351,-122.0109C98.9351,-122.0109 98.9351,-151.855 98.9351,-151.855"/>
<polygon fill="#000000" stroke="#000000" points="95.4352,-151.8549 98.9351,-161.855 102.4352,-151.855 95.4352,-151.8549"/>
</g>
<!-- SharedModule -->
<g id="node9" class="node">
<title>SharedModule</title>
<polygon fill="#8dd3c7" stroke="#000000" points="631.4231,-122 628.4231,-126 607.4231,-126 604.4231,-122 532.5769,-122 532.5769,-86 631.4231,-86 631.4231,-122"/>
<text text-anchor="middle" x="582" y="-99.8" font-family="Times,serif" font-size="14.00" fill="#000000">SharedModule</text>
</g>
<!-- SharedModule&#45;&gt;DefaultModule -->
<g id="edge8" class="edge">
<title>SharedModule&#45;&gt;DefaultModule</title>
<path fill="none" stroke="#000000" d="M545.2561,-122.1467C545.2561,-135.7395 545.2561,-152 545.2561,-152 545.2561,-152 119.0565,-152 119.0565,-152 119.0565,-152 119.0565,-152.9793 119.0565,-152.9793"/>
<polygon fill="#000000" stroke="#000000" points="115.5567,-151.793 119.0565,-161.793 122.5567,-151.7931 115.5567,-151.793"/>
</g>
<!-- HeaderComponent  -->
<g id="node13" class="node">
<title>HeaderComponent </title>
<polygon fill="#fb8072" stroke="#000000" points="861.7436,-198 736.2564,-198 736.2564,-162 861.7436,-162 861.7436,-198"/>
<text text-anchor="middle" x="799" y="-175.8" font-family="Times,serif" font-size="14.00" fill="#000000">HeaderComponent </text>
</g>
<!-- SharedModule&#45;&gt;HeaderComponent  -->
<g id="edge12" class="edge">
<title>SharedModule&#45;&gt;HeaderComponent </title>
<path fill="none" stroke="#000000" stroke-dasharray="5,2" d="M631.2407,-115C695.2648,-115 799,-115 799,-115 799,-115 799,-151.8939 799,-151.8939"/>
<polygon fill="#000000" stroke="#000000" points="795.5001,-151.8938 799,-161.8939 802.5001,-151.8939 795.5001,-151.8938"/>
</g>
<!-- SidenavComponent  -->
<g id="node14" class="node">
<title>SidenavComponent </title>
<polygon fill="#fb8072" stroke="#000000" points="717.9348,-198 588.0652,-198 588.0652,-162 717.9348,-162 717.9348,-198"/>
<text text-anchor="middle" x="653" y="-175.8" font-family="Times,serif" font-size="14.00" fill="#000000">SidenavComponent </text>
</g>
<!-- SharedModule&#45;&gt;SidenavComponent  -->
<g id="edge13" class="edge">
<title>SharedModule&#45;&gt;SidenavComponent </title>
<path fill="none" stroke="#000000" stroke-dasharray="5,2" d="M609.6219,-122.0109C609.6219,-122.0109 609.6219,-151.855 609.6219,-151.855"/>
<polygon fill="#000000" stroke="#000000" points="606.1219,-151.8549 609.6219,-161.855 613.1219,-151.855 606.1219,-151.8549"/>
</g>
<!-- SpinnerComponent  -->
<g id="node15" class="node">
<title>SpinnerComponent </title>
<polygon fill="#fb8072" stroke="#000000" points="570.3814,-198 441.6186,-198 441.6186,-162 570.3814,-162 570.3814,-198"/>
<text text-anchor="middle" x="506" y="-175.8" font-family="Times,serif" font-size="14.00" fill="#000000">SpinnerComponent </text>
</g>
<!-- SharedModule&#45;&gt;SpinnerComponent  -->
<g id="edge14" class="edge">
<title>SharedModule&#45;&gt;SpinnerComponent </title>
<path fill="none" stroke="#000000" stroke-dasharray="5,2" d="M557.7232,-122.0109C557.7232,-122.0109 557.7232,-151.855 557.7232,-151.855"/>
<polygon fill="#000000" stroke="#000000" points="554.2233,-151.8549 557.7232,-161.855 561.2233,-151.855 554.2233,-151.8549"/>
</g>
<!-- HeaderComponent -->
<g id="node10" class="node">
<title>HeaderComponent</title>
<polygon fill="#ffffb3" stroke="#000000" points="1294.7437,-198 1173.2563,-198 1173.2563,-162 1294.7437,-162 1294.7437,-198"/>
<text text-anchor="middle" x="1234" y="-175.8" font-family="Times,serif" font-size="14.00" fill="#000000">HeaderComponent</text>
</g>
<!-- HeaderComponent&#45;&gt;SharedModule -->
<g id="edge9" class="edge">
<title>HeaderComponent&#45;&gt;SharedModule</title>
<path fill="none" stroke="#000000" d="M1234,-161.7616C1234,-136.5171 1234,-94 1234,-94 1234,-94 641.2732,-94 641.2732,-94"/>
<polygon fill="#000000" stroke="#000000" points="641.2733,-90.5001 631.2732,-94 641.2732,-97.5001 641.2733,-90.5001"/>
</g>
<!-- SidenavComponent -->
<g id="node11" class="node">
<title>SidenavComponent</title>
<polygon fill="#ffffb3" stroke="#000000" points="1155.4356,-198 1028.5644,-198 1028.5644,-162 1155.4356,-162 1155.4356,-198"/>
<text text-anchor="middle" x="1092" y="-175.8" font-family="Times,serif" font-size="14.00" fill="#000000">SidenavComponent</text>
</g>
<!-- SidenavComponent&#45;&gt;SharedModule -->
<g id="edge10" class="edge">
<title>SidenavComponent&#45;&gt;SharedModule</title>
<path fill="none" stroke="#000000" d="M1092,-161.6772C1092,-138.3398 1092,-101 1092,-101 1092,-101 641.3643,-101 641.3643,-101"/>
<polygon fill="#000000" stroke="#000000" points="641.3644,-97.5001 631.3643,-101 641.3643,-104.5001 641.3644,-97.5001"/>
</g>
<!-- SpinnerComponent -->
<g id="node12" class="node">
<title>SpinnerComponent</title>
<polygon fill="#ffffb3" stroke="#000000" points="1010.3809,-198 885.6191,-198 885.6191,-162 1010.3809,-162 1010.3809,-198"/>
<text text-anchor="middle" x="948" y="-175.8" font-family="Times,serif" font-size="14.00" fill="#000000">SpinnerComponent</text>
</g>
<!-- SpinnerComponent&#45;&gt;SharedModule -->
<g id="edge11" class="edge">
<title>SpinnerComponent&#45;&gt;SharedModule</title>
<path fill="none" stroke="#000000" d="M948,-161.8314C948,-140.502 948,-108 948,-108 948,-108 641.3604,-108 641.3604,-108"/>
<polygon fill="#000000" stroke="#000000" points="641.3604,-104.5001 631.3604,-108 641.3604,-111.5001 641.3604,-104.5001"/>
</g>
</g>
</svg>
