<?xml version="1.0" encoding="UTF-8" standalone="no"?>
<!DOCTYPE svg PUBLIC "-//W3C//DTD SVG 1.1//EN"
 "http://www.w3.org/Graphics/SVG/1.1/DTD/svg11.dtd">
<!-- Generated by graphviz version 2.40.1 (20161225.0304)
 -->
<!-- Title: dependencies Pages: 1 -->
<svg width="1065pt" height="436pt"
 viewBox="0.00 0.00 1065.00 436.00" xmlns="http://www.w3.org/2000/svg" xmlns:xlink="http://www.w3.org/1999/xlink">
<g id="graph0" class="graph" transform="scale(1 1) rotate(0) translate(4 432)">
<title>dependencies</title>
<polygon fill="#ffffff" stroke="transparent" points="-4,4 -4,-432 1061,-432 1061,4 -4,4"/>
<text text-anchor="start" x="507.5091" y="-42.4" font-family="sans-serif" font-weight="bold" font-size="14.00" fill="#000000">Legend</text>
<polygon fill="#ffffb3" stroke="transparent" points="294.5,-10 294.5,-30 314.5,-30 314.5,-10 294.5,-10"/>
<text text-anchor="start" x="318.129" y="-15.4" font-family="sans-serif" font-size="14.00" fill="#000000"> &#160;Declarations</text>
<polygon fill="#8dd3c7" stroke="transparent" points="407.5,-10 407.5,-30 427.5,-30 427.5,-10 407.5,-10"/>
<text text-anchor="start" x="431.2251" y="-15.4" font-family="sans-serif" font-size="14.00" fill="#000000"> &#160;Module</text>
<polygon fill="#80b1d3" stroke="transparent" points="493.5,-10 493.5,-30 513.5,-30 513.5,-10 493.5,-10"/>
<text text-anchor="start" x="517.2812" y="-15.4" font-family="sans-serif" font-size="14.00" fill="#000000"> &#160;Bootstrap</text>
<polygon fill="#fdb462" stroke="transparent" points="590.5,-10 590.5,-30 610.5,-30 610.5,-10 590.5,-10"/>
<text text-anchor="start" x="614.1732" y="-15.4" font-family="sans-serif" font-size="14.00" fill="#000000"> &#160;Providers</text>
<polygon fill="#fb8072" stroke="transparent" points="686.5,-10 686.5,-30 706.5,-30 706.5,-10 686.5,-10"/>
<text text-anchor="start" x="710.2258" y="-15.4" font-family="sans-serif" font-size="14.00" fill="#000000"> &#160;Exports</text>
<g id="clust1" class="cluster">
<title>cluster_AppModule</title>
<polygon fill="none" stroke="#000000" stroke-dasharray="1,5" points="616,-222 616,-420 1026,-420 1026,-222 616,-222"/>
</g>
<g id="clust2" class="cluster">
<title>cluster_AppModule_declarations</title>
<polygon fill="none" stroke="#000000" points="896,-230 896,-282 1018,-282 1018,-230 896,-230"/>
</g>
<g id="clust4" class="cluster">
<title>cluster_AppModule_imports</title>
<polygon fill="none" stroke="#000000" points="624,-230 624,-282 888,-282 888,-230 624,-230"/>
</g>
<g id="clust6" class="cluster">
<title>cluster_AppModule_bootstrap</title>
<polygon fill="none" stroke="#000000" points="754,-360 754,-412 878,-412 878,-360 754,-360"/>
</g>
<g id="clust14" class="cluster">
<title>cluster_DefaultModule</title>
<polygon fill="none" stroke="#000000" stroke-dasharray="1,5" points="465,-146 465,-214 1036,-214 1036,-146 465,-146"/>
</g>
<g id="clust15" class="cluster">
<title>cluster_DefaultModule_declarations</title>
<polygon fill="none" stroke="#000000" points="595,-154 595,-206 1028,-206 1028,-154 595,-154"/>
</g>
<g id="clust19" class="cluster">
<title>cluster_DefaultModule_imports</title>
<polygon fill="none" stroke="#000000" points="473,-154 473,-206 587,-206 587,-154 473,-154"/>
</g>
<g id="clust23" class="cluster">
<title>cluster_SharedModule</title>
<polygon fill="none" stroke="#000000" stroke-dasharray="1,5" points="8,-70 8,-138 1049,-138 1049,-70 8,-70"/>
</g>
<g id="clust24" class="cluster">
<title>cluster_SharedModule_declarations</title>
<polygon fill="none" stroke="#000000" points="460,-78 460,-130 1041,-130 1041,-78 460,-78"/>
</g>
<g id="clust30" class="cluster">
<title>cluster_SharedModule_exports</title>
<polygon fill="none" stroke="#000000" points="16,-78 16,-130 452,-130 452,-78 16,-78"/>
</g>
<!-- AppComponent -->
<g id="node1" class="node">
<title>AppComponent</title>
<polygon fill="#ffffb3" stroke="#000000" points="1009.9399,-274 904.0601,-274 904.0601,-238 1009.9399,-238 1009.9399,-274"/>
<text text-anchor="middle" x="957" y="-251.8" font-family="Times,serif" font-size="14.00" fill="#000000">AppComponent</text>
</g>
<!-- AppModule -->
<g id="node2" class="node">
<title>AppModule</title>
<polygon fill="#8dd3c7" stroke="#000000" points="857.6571,-339 854.6571,-343 833.6571,-343 830.6571,-339 774.3429,-339 774.3429,-303 857.6571,-303 857.6571,-339"/>
<text text-anchor="middle" x="816" y="-316.8" font-family="Times,serif" font-size="14.00" fill="#000000">AppModule</text>
</g>
<!-- AppComponent&#45;&gt;AppModule -->
<g id="edge1" class="edge">
<title>AppComponent&#45;&gt;AppModule</title>
<path fill="none" stroke="#000000" d="M957,-274.1061C957,-293.3391 957,-321 957,-321 957,-321 867.9229,-321 867.9229,-321"/>
<polygon fill="#000000" stroke="#000000" points="867.9229,-317.5001 857.9229,-321 867.9229,-324.5001 867.9229,-317.5001"/>
</g>
<!-- AppComponent  -->
<g id="node5" class="node">
<title>AppComponent </title>
<polygon fill="#80b1d3" stroke="#000000" points="870.439,-404 761.561,-404 761.561,-368 870.439,-368 870.439,-404"/>
<text text-anchor="middle" x="816" y="-381.8" font-family="Times,serif" font-size="14.00" fill="#000000">AppComponent </text>
</g>
<!-- AppModule&#45;&gt;AppComponent  -->
<g id="edge4" class="edge">
<title>AppModule&#45;&gt;AppComponent </title>
<path fill="none" stroke="#000000" stroke-dasharray="1,5" d="M816,-339.1061C816,-339.1061 816,-357.991 816,-357.991"/>
<polygon fill="#000000" stroke="#000000" points="812.5001,-357.9909 816,-367.991 819.5001,-357.991 812.5001,-357.9909"/>
</g>
<!-- AppRoutingModule -->
<g id="node3" class="node">
<title>AppRoutingModule</title>
<polygon fill="#8dd3c7" stroke="#000000" points="880.2744,-274 877.2744,-278 856.2744,-278 853.2744,-274 751.7256,-274 751.7256,-238 880.2744,-238 880.2744,-274"/>
<text text-anchor="middle" x="816" y="-251.8" font-family="Times,serif" font-size="14.00" fill="#000000">AppRoutingModule</text>
</g>
<!-- AppRoutingModule&#45;&gt;AppModule -->
<g id="edge2" class="edge">
<title>AppRoutingModule&#45;&gt;AppModule</title>
<path fill="none" stroke="#000000" d="M816,-274.1061C816,-274.1061 816,-292.991 816,-292.991"/>
<polygon fill="#000000" stroke="#000000" points="812.5001,-292.9909 816,-302.991 819.5001,-292.991 812.5001,-292.9909"/>
</g>
<!-- DefaultModule -->
<g id="node4" class="node">
<title>DefaultModule</title>
<polygon fill="#8dd3c7" stroke="#000000" points="733.5285,-274 730.5285,-278 709.5285,-278 706.5285,-274 632.4715,-274 632.4715,-238 733.5285,-238 733.5285,-274"/>
<text text-anchor="middle" x="683" y="-251.8" font-family="Times,serif" font-size="14.00" fill="#000000">DefaultModule</text>
</g>
<!-- DefaultModule&#45;&gt;AppModule -->
<g id="edge3" class="edge">
<title>DefaultModule&#45;&gt;AppModule</title>
<path fill="none" stroke="#000000" d="M683,-274.1061C683,-293.3391 683,-321 683,-321 683,-321 764.2829,-321 764.2829,-321"/>
<polygon fill="#000000" stroke="#000000" points="764.2829,-324.5001 774.2829,-321 764.2828,-317.5001 764.2829,-324.5001"/>
</g>
<!-- DashboardComponent -->
<g id="node6" class="node">
<title>DashboardComponent</title>
<polygon fill="#ffffb3" stroke="#000000" points="1019.9734,-198 878.0266,-198 878.0266,-162 1019.9734,-162 1019.9734,-198"/>
<text text-anchor="middle" x="949" y="-175.8" font-family="Times,serif" font-size="14.00" fill="#000000">DashboardComponent</text>
</g>
<!-- DashboardComponent&#45;&gt;DefaultModule -->
<g id="edge5" class="edge">
<title>DashboardComponent&#45;&gt;DefaultModule</title>
<path fill="none" stroke="#000000" d="M892.3338,-198.1097C892.3338,-207.897 892.3338,-218 892.3338,-218 892.3338,-218 726.2679,-218 726.2679,-218 726.2679,-218 726.2679,-227.8903 726.2679,-227.8903"/>
<polygon fill="#000000" stroke="#000000" points="722.768,-227.8903 726.2679,-237.8903 729.768,-227.8904 722.768,-227.8903"/>
</g>
<!-- DefaultComponent -->
<g id="node7" class="node">
<title>DefaultComponent</title>
<polygon fill="#ffffb3" stroke="#000000" points="859.8104,-198 736.1896,-198 736.1896,-162 859.8104,-162 859.8104,-198"/>
<text text-anchor="middle" x="798" y="-175.8" font-family="Times,serif" font-size="14.00" fill="#000000">DefaultComponent</text>
</g>
<!-- DefaultComponent&#45;&gt;DefaultModule -->
<g id="edge6" class="edge">
<title>DefaultComponent&#45;&gt;DefaultModule</title>
<path fill="none" stroke="#000000" d="M743.979,-198.0109C743.979,-220.4852 743.979,-256 743.979,-256 743.979,-256 742.9445,-256 742.9445,-256"/>
<polygon fill="#000000" stroke="#000000" points="743.6347,-252.5001 733.6347,-256 743.6347,-259.5001 743.6347,-252.5001"/>
</g>
<!-- HomeComponent -->
<g id="node8" class="node">
<title>HomeComponent</title>
<polygon fill="#ffffb3" stroke="#000000" points="718.5451,-198 603.4549,-198 603.4549,-162 718.5451,-162 718.5451,-198"/>
<text text-anchor="middle" x="661" y="-175.8" font-family="Times,serif" font-size="14.00" fill="#000000">HomeComponent</text>
</g>
<!-- HomeComponent&#45;&gt;DefaultModule -->
<g id="edge7" class="edge">
<title>HomeComponent&#45;&gt;DefaultModule</title>
<path fill="none" stroke="#000000" d="M675.5042,-198.0109C675.5042,-198.0109 675.5042,-227.855 675.5042,-227.855"/>
<polygon fill="#000000" stroke="#000000" points="672.0043,-227.8549 675.5042,-237.855 679.0043,-227.855 672.0043,-227.8549"/>
</g>
<!-- SharedModule -->
<g id="node9" class="node">
<title>SharedModule</title>
<polygon fill="#8dd3c7" stroke="#000000" points="579.4231,-198 576.4231,-202 555.4231,-202 552.4231,-198 480.5769,-198 480.5769,-162 579.4231,-162 579.4231,-198"/>
<text text-anchor="middle" x="530" y="-175.8" font-family="Times,serif" font-size="14.00" fill="#000000">SharedModule</text>
</g>
<!-- SharedModule&#45;&gt;DefaultModule -->
<g id="edge8" class="edge">
<title>SharedModule&#45;&gt;DefaultModule</title>
<path fill="none" stroke="#000000" d="M530,-198.0109C530,-220.4852 530,-256 530,-256 530,-256 622.0532,-256 622.0532,-256"/>
<polygon fill="#000000" stroke="#000000" points="622.0533,-259.5001 632.0532,-256 622.0532,-252.5001 622.0533,-259.5001"/>
</g>
<!-- HeaderComponent  -->
<g id="node14" class="node">
<title>HeaderComponent </title>
<polygon fill="#fb8072" stroke="#000000" points="443.7436,-122 318.2564,-122 318.2564,-86 443.7436,-86 443.7436,-122"/>
<text text-anchor="middle" x="381" y="-99.8" font-family="Times,serif" font-size="14.00" fill="#000000">HeaderComponent </text>
</g>
<!-- SharedModule&#45;&gt;HeaderComponent  -->
<g id="edge13" class="edge">
<title>SharedModule&#45;&gt;HeaderComponent </title>
<path fill="none" stroke="#000000" stroke-dasharray="5,2" d="M480.3852,-171C437.041,-171 381,-171 381,-171 381,-171 381,-132.308 381,-132.308"/>
<polygon fill="#000000" stroke="#000000" points="384.5001,-132.308 381,-122.308 377.5001,-132.3081 384.5001,-132.308"/>
</g>
<!-- SidenavComponent  -->
<g id="node15" class="node">
<title>SidenavComponent </title>
<polygon fill="#fb8072" stroke="#000000" points="299.9348,-122 170.0652,-122 170.0652,-86 299.9348,-86 299.9348,-122"/>
<text text-anchor="middle" x="235" y="-99.8" font-family="Times,serif" font-size="14.00" fill="#000000">SidenavComponent </text>
</g>
<!-- SharedModule&#45;&gt;SidenavComponent  -->
<g id="edge14" class="edge">
<title>SharedModule&#45;&gt;SidenavComponent </title>
<path fill="none" stroke="#000000" stroke-dasharray="5,2" d="M480.6236,-180C396.6443,-180 235,-180 235,-180 235,-180 235,-132.0109 235,-132.0109"/>
<polygon fill="#000000" stroke="#000000" points="238.5001,-132.0109 235,-122.0109 231.5001,-132.011 238.5001,-132.0109"/>
</g>
<!-- SpinnerComponent  -->
<g id="node16" class="node">
<title>SpinnerComponent </title>
<polygon fill="#fb8072" stroke="#000000" points="152.3814,-122 23.6186,-122 23.6186,-86 152.3814,-86 152.3814,-122"/>
<text text-anchor="middle" x="88" y="-99.8" font-family="Times,serif" font-size="14.00" fill="#000000">SpinnerComponent </text>
</g>
<!-- SharedModule&#45;&gt;SpinnerComponent  -->
<g id="edge15" class="edge">
<title>SharedModule&#45;&gt;SpinnerComponent </title>
<path fill="none" stroke="#000000" stroke-dasharray="5,2" d="M480.5836,-189C365.2452,-189 88,-189 88,-189 88,-189 88,-132.0263 88,-132.0263"/>
<polygon fill="#000000" stroke="#000000" points="91.5001,-132.0263 88,-122.0263 84.5001,-132.0263 91.5001,-132.0263"/>
</g>
<!-- HandleClickDirective -->
<g id="node10" class="node">
<title>HandleClickDirective</title>
<polygon fill="#ffffb3" stroke="#000000" points="1033.3417,-122 894.6583,-122 894.6583,-86 1033.3417,-86 1033.3417,-122"/>
<text text-anchor="middle" x="964" y="-99.8" font-family="Times,serif" font-size="14.00" fill="#000000">HandleClickDirective</text>
</g>
<!-- HandleClickDirective&#45;&gt;SharedModule -->
<g id="edge9" class="edge">
<title>HandleClickDirective&#45;&gt;SharedModule</title>
<path fill="none" stroke="#000000" d="M957.283,-122.0439C957.283,-134.5633 957.283,-149 957.283,-149 957.283,-149 554.6056,-149 554.6056,-149 554.6056,-149 554.6056,-151.9672 554.6056,-151.9672"/>
<polygon fill="#000000" stroke="#000000" points="551.1056,-151.9671 554.6056,-161.9672 558.1056,-151.9672 551.1056,-151.9671"/>
</g>
<!-- HeaderComponent -->
<g id="node11" class="node">
<title>HeaderComponent</title>
<polygon fill="#ffffb3" stroke="#000000" points="876.7437,-122 755.2563,-122 755.2563,-86 876.7437,-86 876.7437,-122"/>
<text text-anchor="middle" x="816" y="-99.8" font-family="Times,serif" font-size="14.00" fill="#000000">HeaderComponent</text>
</g>
<!-- HeaderComponent&#45;&gt;SharedModule -->
<g id="edge10" class="edge">
<title>HeaderComponent&#45;&gt;SharedModule</title>
<path fill="none" stroke="#000000" d="M807.3917,-122.2434C807.3917,-129.4297 807.3917,-136 807.3917,-136 807.3917,-136 530,-136 530,-136 530,-136 530,-151.8495 530,-151.8495"/>
<polygon fill="#000000" stroke="#000000" points="526.5001,-151.8494 530,-161.8495 533.5001,-151.8495 526.5001,-151.8494"/>
</g>
<!-- SidenavComponent -->
<g id="node12" class="node">
<title>SidenavComponent</title>
<polygon fill="#ffffb3" stroke="#000000" points="737.4356,-122 610.5644,-122 610.5644,-86 737.4356,-86 737.4356,-122"/>
<text text-anchor="middle" x="674" y="-99.8" font-family="Times,serif" font-size="14.00" fill="#000000">SidenavComponent</text>
</g>
<!-- SidenavComponent&#45;&gt;SharedModule -->
<g id="edge11" class="edge">
<title>SidenavComponent&#45;&gt;SharedModule</title>
<path fill="none" stroke="#000000" d="M610.7546,-104C603.0513,-104 597.8341,-104 597.8341,-104 597.8341,-104 597.8341,-180 597.8341,-180 597.8341,-180 589.2982,-180 589.2982,-180"/>
<polygon fill="#000000" stroke="#000000" points="589.2982,-176.5001 579.2982,-180 589.2981,-183.5001 589.2982,-176.5001"/>
</g>
<!-- SpinnerComponent -->
<g id="node13" class="node">
<title>SpinnerComponent</title>
<polygon fill="#ffffb3" stroke="#000000" points="592.3809,-122 467.6191,-122 467.6191,-86 592.3809,-86 592.3809,-122"/>
<text text-anchor="middle" x="530" y="-99.8" font-family="Times,serif" font-size="14.00" fill="#000000">SpinnerComponent</text>
</g>
<!-- SpinnerComponent&#45;&gt;SharedModule -->
<g id="edge12" class="edge">
<title>SpinnerComponent&#45;&gt;SharedModule</title>
<path fill="none" stroke="#000000" d="M505.3945,-122.0109C505.3945,-122.0109 505.3945,-151.855 505.3945,-151.855"/>
<polygon fill="#000000" stroke="#000000" points="501.8945,-151.8549 505.3945,-161.855 508.8945,-151.855 501.8945,-151.8549"/>
</g>
</g>
</svg>
